Release info:

General
Format                                   : Matroska
Format version                           : Version 4 / Version 2
File size                                : 693 MiB
Duration                                 : 1h 35mn
Overall bit rate                         : 1 018 Kbps
Movie name                               : The Man with the Iron Fists 2012 WEBRip English

Video
ID                                       : 1
Format                                   : MPEG-4 Visual
Format profile                           : Advanced Simple@L5
Format settings, BVOP                    : Yes
Format settings, QPel                    : No
Format settings, GMC                     : No warppoints
Format settings, Matrix                  : Default (H.263)
Codec ID                                 : V_MS/VFW/FOURCC / XVID
Codec ID/Hint                            : XviD
Duration                                 : 1h 35mn
Bit rate                                 : 870 Kbps
Width                                    : 640 pixels
Height                                   : 272 pixels
Display aspect ratio                     : 2.35:1
Frame rate mode                          : Constant
Frame rate                               : 23.976 fps
Color space                              : YUV
Chroma subsampling                       : 4:2:0
Bit depth                                : 8 bits
Scan type                                : Progressive
Compression mode                         : Lossy
Bits/(Pixel*Frame)                       : 0.208
Stream size                              : 592 MiB (85%)
Title                                    : The Man with the Iron Fists 2012 WEBRip English
Language                                 : English
Default                                  : Yes
Forced                                   : No

Audio
ID                                       : 2
Format                                   : MPEG Audio
Format version                           : Version 1
Format profile                           : Layer 3
Mode                                     : Joint stereo
Mode extension                           : MS Stereo
Codec ID                                 : A_MPEG/L3
Codec ID/Hint                            : MP3
Duration                                 : 1h 35mn
Bit rate mode                            : Constant
Bit rate                                 : 128 Kbps
Channel(s)                               : 2 channels
Sampling rate                            : 48.0 KHz
Compression mode                         : Lossy
Stream size                              : 87.1 MiB (13%)
Title                                    : The Man with the Iron Fists 2012 WEBRip English
Language                                 : English
Default                                  : Yes
Forced                                   : No

Text
ID                                       : 3
Format                                   : UTF-8
Codec ID                                 : S_TEXT/UTF8
Codec ID/Info                            : UTF-8 Plain Text
Title                                    : The Man with the Iron Fists 2012 WEBRip English
Language                                 : English
Default                                  : Yes
Forced                                   : No



Source:
credit to original movie ripper ETRG (Thanks)

IMDB Info:

On the hunt for a fabled treasure of gold, a band of warriors, assassins, and a rogue British soldier descend upon a village in feudal China, where a humble blacksmith looks to defend himself and his fellow villagers.

Director: RZA
Writers: RZA (screenplay), RZA (story),
Stars: Russell Crowe, Cung Le, Lucy Liu 

Genres: Action
 
http://www.imdb.com/title/tt1258972/

Screen Shot:
 
http://www.shotpix.com/images/79719323608105624706.png 
http://www.shotpix.com/images/33508729226240733494.png 
http://www.shotpix.com/images/32069021028081626330.png 
http://www.shotpix.com/images/79785210201428428101.png